<svg xmlns="http://www.w3.org/2000/svg" viewBox="0 0 32 32" fill="none">
  <rect width="32" height="32" rx="6" fill="#2563EB"/>
  <path d="M16 8c-1.1 0-2 .9-2 2s.9 2 2 2 2-.9 2-2-.9-2-2-2zm-3 6c-.8 0-1.5.7-1.5 1.5S12.2 17 13 17s1.5-.7 1.5-1.5S13.8 14 13 14zm6 0c-.8 0-1.5.7-1.5 1.5S18.2 17 19 17s1.5-.7 1.5-1.5S19.8 14 19 14zm-5 4c-.7 0-1.2.5-1.2 1.2s.5 1.2 1.2 1.2 1.2-.5 1.2-1.2-.5-1.2-1.2-1.2zm4 0c-.7 0-1.2.5-1.2 1.2s.5 1.2 1.2 1.2 1.2-.5 1.2-1.2-.5-1.2-1.2-1.2zm-3 4c-.6 0-1 .4-1 1s.4 1 1 1 1-.4 1-1-.4-1-1-1zm2 0c-.6 0-1 .4-1 1s.4 1 1 1 1-.4 1-1-.4-1-1-1z" fill="white"/>
</svg>
